<?xml version="1.0" encoding="utf-8"?>
<svg viewBox="0 0 60 60" xmlns="http://www.w3.org/2000/svg"><style>
  svg { filter: invert(100%); }
</style><title/><g data-name="Layer 1" id="Layer_1"><path d="M33.24609,7l1.06378-3.72543A1,1,0,0,0,33.34831,2H26.65169a1,1,0,0,0-.96157,1.27457L26.75391,7Z"/><path d="M24.90723,23.4209,19.49512,35.07776c6.2489.24719,8.11511-.91522,9.915-2.045,1.829-1.14795,3.72339-2.3291,9.163-2.11523L35.09277,23.4209A.99431.99431,0,0,1,35,23V12a.99974.99974,0,0,1,1-1,2,2,0,0,0,0-4h-.67383l-.36426,1.2749A1.00094,1.00094,0,0,1,34,9H26a1.00094,1.00094,0,0,1-.96191-.7251L24.67383,7H24a2,2,0,0,0,0,4,.99974.99974,0,0,1,1,1V23A1.00923,1.00923,0,0,1,24.90723,23.4209Z"/><path d="M47.11914,49.3252,39.52667,32.97137c-5.62567-.38263-7.22632.60809-9.053,1.75519-1.79687,1.12744-3.79883,2.38379-9.40137,2.38379-.7533,0-1.59229-.02991-2.48425-.07892l-5.70715,12.2923a2.93155,2.93155,0,0,0,.35449,3.11084C16.46,56.28369,21.62988,58,30,58s13.54-1.71631,16.76465-5.56543A2.92927,2.92927,0,0,0,47.11914,49.3252ZM18.247,47.40625l-1.333,3a1.00027,1.00027,0,0,1-1.82813-.8125l1.333-3a1.00027,1.00027,0,1,1,1.82813.8125Zm2.667-6-.88867,2a1.00027,1.00027,0,0,1-1.82812-.8125l.88867-2a1.00027,1.00027,0,1,1,1.82813.8125Z"/></g></svg>